<?xml version="1.0" encoding="utf-8"?>
<!-- Generator: Adobe Illustrator 27.6.1, SVG Export Plug-In . SVG Version: 6.00 Build 0)  -->
<svg version="1.1" id="Livello_1" xmlns="http://www.w3.org/2000/svg" xmlns:xlink="http://www.w3.org/1999/xlink" x="0px" y="0px"
	 viewBox="0 0 32 32" style="enable-background:new 0 0 32 32;" xml:space="preserve">
<style type="text/css">
	.st0{fill:#B19776;}
	.st1{fill:#E0C4B8;}
	.st2{fill:#D9BDB5;}
	.st3{fill:url(#SVGID_1_);}
	.st4{fill:#355052;}
	.st5{fill:url(#SVGID_00000023241322116572456250000001546303235919549356_);}
</style>
<g>
	<path class="st0" d="M14.29,13.99c-0.91-0.84-1.83-1.83-2.9-2.47c-1.29-0.76-2.83-1.03-4.3-0.66c-1.28,0.33-2.33,1.21-3.12,2.24
		c-0.81,1.05-1.73,2.42-1.13,3.76c1.26,2.83,4.26,4.71,7.36,3.81c1.17-0.34,2.07-1.07,2.99-1.84c0.76-0.63,1.77-1.57,2.84-2.86
		v-0.36C15.64,15.25,15.03,14.68,14.29,13.99z M15.71,15.78c0.01,0.07-0.02,0.14-0.04,0.18c-1.12,1.29-2.17,2.22-2.96,2.86
		c-1.05,0.86-1.61,1.13-2.22,1.32c-0.75,0.24-1.57,0.25-2.34,0.08c-1.96-0.42-3.39-1.98-3.58-3.99c-0.09-1,0.12-2.04,0.63-2.92
		c0.52-0.9,1.37-1.59,2.38-1.87c0.81-0.23,1.72-0.24,2.54-0.03c1.09,0.28,2,0.98,2.84,1.71c0.58,0.51,1.14,1.04,1.69,1.57
		c0.31,0.29,0.61,0.59,0.92,0.88C15.6,15.62,15.7,15.68,15.71,15.78z"/>
	<path class="st1" d="M26.76,14.55c-0.46-1.66-1.77-2.49-2.32-2.77c-0.27-0.14-1.2-0.59-2.47-0.52c-1.59,0.09-2.65,0.95-2.99,1.24
		c-0.5,0.47-1.02,0.98-1.54,1.53c-0.51,0.54-0.98,1.08-1.41,1.59c0,0.12,0,0.24,0,0.36c0.49,0.5,1.18,1.2,2.03,2.01
		c1.38,1.31,1.73,1.53,2.04,1.69c0.41,0.21,1.63,0.84,3.11,0.52c1.14-0.24,1.87-0.91,2.2-1.21c0.24-0.22,0.69-0.65,1.03-1.33
		C27.18,16.18,26.81,14.73,26.76,14.55z M23.8,19.26c-0.45,0.21-1.26,0.44-2.18,0.37c-1.71-0.13-2.82-1.25-3.11-1.56
		c-1.14-1.08-1.97-1.87-2.13-2.02c-0.03-0.03-0.12-0.11-0.13-0.22c-0.01-0.08,0.02-0.15,0.05-0.19c0.25-0.35,0.63-0.82,1.14-1.33
		c1.4-1.39,1.44-1.67,2.67-2.13c0.17-0.06,0.92-0.33,1.9-0.27c0.23,0.01,2.63,0.19,3.59,1.99c0.01,0.03,0.07,0.14,0.14,0.29
		c0.61,1.43,0.3,3.15-0.79,4.26c-0.06,0.06-0.12,0.12-0.18,0.17C24.78,18.63,24.35,19.01,23.8,19.26z"/>
	<path class="st2" d="M16.54,15.64"/>
	<linearGradient id="SVGID_1_" gradientUnits="userSpaceOnUse" x1="16.9665" y1="15.7106" x2="28.4882" y2="15.7106">
		<stop  offset="0" style="stop-color:#FFFFFF;stop-opacity:0"/>
		<stop  offset="0.021" style="stop-color:#FAF7F4;stop-opacity:0.021"/>
		<stop  offset="0.0987" style="stop-color:#EADED1;stop-opacity:0.0987"/>
		<stop  offset="0.1843" style="stop-color:#DCCAB3;stop-opacity:0.1843"/>
		<stop  offset="0.2785" style="stop-color:#D2BA9B;stop-opacity:0.2785"/>
		<stop  offset="0.3845" style="stop-color:#C9AD8A;stop-opacity:0.3845"/>
		<stop  offset="0.5093" style="stop-color:#C4A57D;stop-opacity:0.5093"/>
		<stop  offset="0.6706" style="stop-color:#C1A077;stop-opacity:0.6706"/>
		<stop  offset="1" style="stop-color:#C09F75"/>
	</linearGradient>
	<path class="st3" d="M17.42,12.76c2.09-2.02,4.93-2.68,7.07-1.71c0.85,0.39,2.35,1.38,2.97,3.16c0.26,0.75,0.26,1.37,0.26,1.49
		c0,1.99-1.44,4.06-3.49,4.87c-2,0.79-3.83,0.07-4.34-0.14c-1.72-0.71-2.62-2-2.93-2.5c0.2,0.47,0.95,2.1,2.82,3.05
		c0.23,0.12,2.51,1.22,5.01,0.16c2.05-0.87,3.7-2.96,3.69-5.41c0-2.91-2.39-5.46-5.25-5.82c-0.18-0.02-0.72-0.1-1.42-0.01
		C19.33,10.21,17.84,12.16,17.42,12.76z"/>
	<circle class="st4" cx="22.06" cy="15.8" r="2.82"/>
	<path class="st4" d="M10.81,12.11c-2.11-0.07-3.85,1.56-3.94,3.5c-0.1,2.08,1.72,3.97,3.99,3.88c-0.27,0.09-1.76,0.54-3.25-0.29
		c-1.25-0.7-2.16-2.12-2.03-3.73c0.13-1.55,1.17-2.77,2.43-3.29C9.29,11.66,10.46,11.99,10.81,12.11z"/>
	
		<linearGradient id="SVGID_00000107587756148041526210000014026345184429990321_" gradientUnits="userSpaceOnUse" x1="17.4042" y1="15.7345" x2="29.3503" y2="15.7345">
		<stop  offset="0" style="stop-color:#FFFFFF;stop-opacity:0"/>
		<stop  offset="0.021" style="stop-color:#FAF7F4;stop-opacity:0.021"/>
		<stop  offset="0.0987" style="stop-color:#EADED1;stop-opacity:0.0987"/>
		<stop  offset="0.1843" style="stop-color:#DCCAB3;stop-opacity:0.1843"/>
		<stop  offset="0.2785" style="stop-color:#D2BA9B;stop-opacity:0.2785"/>
		<stop  offset="0.3845" style="stop-color:#C9AD8A;stop-opacity:0.3845"/>
		<stop  offset="0.5093" style="stop-color:#C4A57D;stop-opacity:0.5093"/>
		<stop  offset="0.6706" style="stop-color:#C1A077;stop-opacity:0.6706"/>
		<stop  offset="1" style="stop-color:#C09F75"/>
	</linearGradient>
	<path style="fill:url(#SVGID_00000107587756148041526210000014026345184429990321_);" d="M17.4,11.42c0.23-0.25,2.57-2.76,6-2.34
		c2.91,0.36,5.49,2.68,5.89,5.8c0.43,3.34-1.77,6.49-4.89,7.34c-2.48,0.68-5.2-0.19-6.98-2.23c1.8,1.94,4.47,2.74,6.88,2.07
		c2.99-0.84,5.23-3.84,4.83-7.1c-0.37-3.09-2.98-5.29-5.74-5.69C20.04,8.79,17.66,11.15,17.4,11.42z"/>
</g>
</svg>
